<svg width="24" height="24" viewBox="0 0 24 24" fill="none" xmlns="http://www.w3.org/2000/svg">
<path d="M21.2166 6.23062L12.2166 2.48062C12.0779 2.42343 11.9221 2.42343 11.7834 2.48062L2.78344 6.23062C2.6692 6.27822 2.57384 6.36217 2.51215 6.46945C2.45045 6.57674 2.42586 6.70138 2.44219 6.82406L3.94219 18.0741C3.95429 18.1652 3.98856 18.2521 4.04201 18.3269C4.09545 18.4018 4.16644 18.4624 4.24875 18.5034L11.7487 22.2534C11.8268 22.2924 11.9128 22.3127 12 22.3127C12.0872 22.3127 12.1732 22.2924 12.2512 22.2534L19.7512 18.5034C19.8336 18.4624 19.9045 18.4018 19.958 18.3269C20.0114 18.2521 20.0457 18.1652 20.0578 18.0741L21.5578 6.82406C21.5741 6.70138 21.5495 6.57674 21.4879 6.46945C21.4262 6.36217 21.3308 6.27822 21.2166 6.23062ZM18.9816 17.6306L12 21.1209L5.01844 17.6306L3.61219 7.10344L12 3.60937L20.385 7.10344L18.9816 17.6306ZM11.5078 7.97437L7.75781 14.7244C7.68546 14.8549 7.66792 15.0088 7.70906 15.1523C7.7502 15.2958 7.84665 15.417 7.97719 15.4894C8.10772 15.5617 8.26166 15.5793 8.40512 15.5381C8.54859 15.497 8.66983 15.4005 8.74219 15.27L9.83063 13.3125H14.1694L15.2578 15.2728C15.3065 15.3606 15.3779 15.4338 15.4644 15.4848C15.551 15.5357 15.6496 15.5625 15.75 15.5625C15.8453 15.5626 15.9389 15.5381 16.0219 15.4912C16.1522 15.4189 16.2485 15.2979 16.2896 15.1546C16.3308 15.0113 16.3134 14.8576 16.2413 14.7272L12.4913 7.97719C12.4426 7.88927 12.3713 7.81598 12.2847 7.76495C12.1982 7.71392 12.0995 7.68701 11.9991 7.68701C11.8986 7.68701 11.7999 7.71392 11.7134 7.76495C11.6268 7.81598 11.5555 7.88927 11.5069 7.97719L11.5078 7.97437ZM13.5441 12.1875H10.4559L12 9.40781L13.5441 12.1875Z" fill="black"/>
</svg>
