<svg width="24" height="24" viewBox="0 0 24 24" fill="none" xmlns="http://www.w3.org/2000/svg">
<path d="M18.5306 6.53063L7.81031 17.25H15.75C15.9489 17.25 16.1397 17.329 16.2803 17.4697C16.421 17.6103 16.5 17.8011 16.5 18C16.5 18.1989 16.421 18.3897 16.2803 18.5303C16.1397 18.671 15.9489 18.75 15.75 18.75H6C5.80109 18.75 5.61032 18.671 5.46967 18.5303C5.32902 18.3897 5.25 18.1989 5.25 18V8.25001C5.25 8.05109 5.32902 7.86033 5.46967 7.71968C5.61032 7.57902 5.80109 7.50001 6 7.50001C6.19891 7.50001 6.38968 7.57902 6.53033 7.71968C6.67098 7.86033 6.75 8.05109 6.75 8.25001V16.1897L17.4694 5.46938C17.5391 5.3997 17.6218 5.34442 17.7128 5.30671C17.8039 5.269 17.9015 5.24959 18 5.24959C18.0985 5.24959 18.1961 5.269 18.2872 5.30671C18.3782 5.34442 18.4609 5.3997 18.5306 5.46938C18.6003 5.53906 18.6556 5.62179 18.6933 5.71283C18.731 5.80388 18.7504 5.90146 18.7504 6.00001C18.7504 6.09855 18.731 6.19613 18.6933 6.28718C18.6556 6.37822 18.6003 6.46095 18.5306 6.53063Z" fill="#1F1F1F"/>
</svg>
