<svg width="24" height="24" viewBox="0 0 24 24" fill="none" xmlns="http://www.w3.org/2000/svg">
<path d="M18.75 8.25001V18C18.75 18.1989 18.671 18.3897 18.5303 18.5303C18.3897 18.671 18.1989 18.75 18 18.75H8.25C8.05109 18.75 7.86032 18.671 7.71967 18.5303C7.57902 18.3897 7.5 18.1989 7.5 18C7.5 17.8011 7.57902 17.6103 7.71967 17.4697C7.86032 17.329 8.05109 17.25 8.25 17.25H16.1897L5.46938 6.53063C5.32865 6.3899 5.24958 6.19903 5.24958 6.00001C5.24958 5.80098 5.32865 5.61011 5.46938 5.46938C5.61011 5.32865 5.80098 5.24959 6 5.24959C6.19902 5.24959 6.3899 5.32865 6.53063 5.46938L17.25 16.1897V8.25001C17.25 8.05109 17.329 7.86033 17.4697 7.71968C17.6103 7.57902 17.8011 7.50001 18 7.50001C18.1989 7.50001 18.3897 7.57902 18.5303 7.71968C18.671 7.86033 18.75 8.05109 18.75 8.25001Z" fill="#1F1F1F"/>
</svg>
