<svg width="24" height="24" viewBox="0 0 24 24" fill="none" xmlns="http://www.w3.org/2000/svg">
<path d="M18.1716 12C18.8972 11.0133 19.5222 9.95651 20.0372 8.84532C21.0441 6.60657 21.0684 4.84595 20.1122 3.88782C19.1559 2.9297 17.3934 2.95595 15.1547 3.96282C14.0435 4.47786 12.9867 5.10285 12 5.82845C11.0133 5.10285 9.9565 4.47786 8.84531 3.96282C6.60656 2.95595 4.84594 2.93157 3.88781 3.88782C2.92969 4.84407 2.95594 6.60657 3.96281 8.84532C4.47785 9.95651 5.10284 11.0133 5.82844 12C5.10284 12.9867 4.47785 14.0435 3.96281 15.1547C2.95594 17.3934 2.93156 19.1541 3.88781 20.1122C4.35656 20.5809 5.01281 20.8125 5.82188 20.8125C6.675 20.8125 7.69688 20.5538 8.84531 20.0372C9.9565 19.5222 11.0133 18.8972 12 18.1716C12.9867 18.8972 14.0435 19.5222 15.1547 20.0372C16.3031 20.5538 17.325 20.8125 18.1781 20.8125C18.9881 20.8125 19.6453 20.5791 20.1122 20.1122C21.0713 19.1541 21.0441 17.3934 20.0372 15.1547C19.5222 14.0435 18.8972 12.9867 18.1716 12ZM19.3125 4.68751C20.1825 5.55751 19.5338 8.0897 17.4563 11.0625C16.7893 10.2281 16.0763 9.43153 15.3206 8.67657C14.5666 7.92062 13.771 7.20732 12.9375 6.54001C15.9141 4.46345 18.4472 3.81376 19.3125 4.68751ZM16.7634 12C16.0727 12.8893 15.3272 13.7347 14.5313 14.5313C13.7349 15.3294 12.8895 16.0771 12 16.77C11.1105 16.0771 10.2651 15.3294 9.46875 14.5313C8.67085 13.7346 7.92316 12.8893 7.23 12C8.62097 10.2233 10.2227 8.62215 12 7.23188C12.8892 7.92446 13.7346 8.67152 14.5313 9.46876C15.3284 10.2652 16.0752 11.1106 16.7672 12H16.7634ZM4.6875 4.68751C4.93875 4.43532 5.32875 4.31251 5.82844 4.31251C7.0575 4.31251 8.95031 5.06251 11.0663 6.5447C10.2299 7.20948 9.43179 7.92092 8.67563 8.67563C7.91989 9.4309 7.2069 10.2278 6.54 11.0625C4.4625 8.08595 3.81375 5.55376 4.6875 4.68751ZM4.6875 19.3125C3.8175 18.4425 4.46719 15.9103 6.54375 12.9375C7.21068 13.7719 7.92366 14.5685 8.67938 15.3234C9.4334 16.0794 10.229 16.7927 11.0625 17.46C8.08594 19.5375 5.55375 20.1863 4.6875 19.3125ZM19.3125 19.3125C18.4425 20.1825 15.9103 19.5328 12.9375 17.4553C13.7722 16.789 14.5687 16.0763 15.3234 15.3206C16.0794 14.5666 16.7927 13.771 17.46 12.9375C19.5375 15.9141 20.1863 18.4463 19.3125 19.3125ZM12.9375 12C12.9375 12.1854 12.8825 12.3667 12.7795 12.5209C12.6765 12.675 12.5301 12.7952 12.3588 12.8661C12.1875 12.9371 11.999 12.9557 11.8171 12.9195C11.6352 12.8833 11.4682 12.794 11.3371 12.6629C11.206 12.5318 11.1167 12.3648 11.0805 12.1829C11.0443 12.001 11.0629 11.8125 11.1339 11.6412C11.2048 11.4699 11.325 11.3235 11.4792 11.2205C11.6333 11.1175 11.8146 11.0625 12 11.0625C12.2486 11.0625 12.4871 11.1613 12.6629 11.3371C12.8387 11.5129 12.9375 11.7514 12.9375 12Z" fill="black"/>
</svg>
