<svg width="24" height="24" viewBox="0 0 24 24" fill="none" xmlns="http://www.w3.org/2000/svg">
<path d="M21.5625 4.5V8.25C21.5625 8.39918 21.5032 8.54226 21.3977 8.64775C21.2923 8.75324 21.1492 8.8125 21 8.8125C20.8508 8.8125 20.7077 8.75324 20.6023 8.64775C20.4968 8.54226 20.4375 8.39918 20.4375 8.25V5.0625H17.25C17.1008 5.0625 16.9577 5.00324 16.8523 4.89775C16.7468 4.79226 16.6875 4.64918 16.6875 4.5C16.6875 4.35082 16.7468 4.20774 16.8523 4.10225C16.9577 3.99676 17.1008 3.9375 17.25 3.9375H21C21.1492 3.9375 21.2923 3.99676 21.3977 4.10225C21.5032 4.20774 21.5625 4.35082 21.5625 4.5ZM6.75 18.9375H3.5625V15.75C3.5625 15.6008 3.50324 15.4577 3.39775 15.3523C3.29226 15.2468 3.14918 15.1875 3 15.1875C2.85082 15.1875 2.70774 15.2468 2.60225 15.3523C2.49676 15.4577 2.4375 15.6008 2.4375 15.75V19.5C2.4375 19.6492 2.49676 19.7923 2.60225 19.8977C2.70774 20.0032 2.85082 20.0625 3 20.0625H6.75C6.89918 20.0625 7.04226 20.0032 7.14775 19.8977C7.25324 19.7923 7.3125 19.6492 7.3125 19.5C7.3125 19.3508 7.25324 19.2077 7.14775 19.1023C7.04226 18.9968 6.89918 18.9375 6.75 18.9375ZM21 15.1875C20.8508 15.1875 20.7077 15.2468 20.6023 15.3523C20.4968 15.4577 20.4375 15.6008 20.4375 15.75V18.9375H17.25C17.1008 18.9375 16.9577 18.9968 16.8523 19.1023C16.7468 19.2077 16.6875 19.3508 16.6875 19.5C16.6875 19.6492 16.7468 19.7923 16.8523 19.8977C16.9577 20.0032 17.1008 20.0625 17.25 20.0625H21C21.1492 20.0625 21.2923 20.0032 21.3977 19.8977C21.5032 19.7923 21.5625 19.6492 21.5625 19.5V15.75C21.5625 15.6008 21.5032 15.4577 21.3977 15.3523C21.2923 15.2468 21.1492 15.1875 21 15.1875ZM3 8.8125C3.14918 8.8125 3.29226 8.75324 3.39775 8.64775C3.50324 8.54226 3.5625 8.39918 3.5625 8.25V5.0625H6.75C6.89918 5.0625 7.04226 5.00324 7.14775 4.89775C7.25324 4.79226 7.3125 4.64918 7.3125 4.5C7.3125 4.35082 7.25324 4.20774 7.14775 4.10225C7.04226 3.99676 6.89918 3.9375 6.75 3.9375H3C2.85082 3.9375 2.70774 3.99676 2.60225 4.10225C2.49676 4.20774 2.4375 4.35082 2.4375 4.5V8.25C2.4375 8.39918 2.49676 8.54226 2.60225 8.64775C2.70774 8.75324 2.85082 8.8125 3 8.8125ZM7.5 7.6875C7.35082 7.6875 7.20774 7.74676 7.10225 7.85225C6.99676 7.95774 6.9375 8.10082 6.9375 8.25V15.75C6.9375 15.8992 6.99676 16.0423 7.10225 16.1477C7.20774 16.2532 7.35082 16.3125 7.5 16.3125C7.64918 16.3125 7.79226 16.2532 7.89775 16.1477C8.00324 16.0423 8.0625 15.8992 8.0625 15.75V8.25C8.0625 8.10082 8.00324 7.95774 7.89775 7.85225C7.79226 7.74676 7.64918 7.6875 7.5 7.6875ZM17.0625 15.75V8.25C17.0625 8.10082 17.0032 7.95774 16.8977 7.85225C16.7923 7.74676 16.6492 7.6875 16.5 7.6875C16.3508 7.6875 16.2077 7.74676 16.1023 7.85225C15.9968 7.95774 15.9375 8.10082 15.9375 8.25V15.75C15.9375 15.8992 15.9968 16.0423 16.1023 16.1477C16.2077 16.2532 16.3508 16.3125 16.5 16.3125C16.6492 16.3125 16.7923 16.2532 16.8977 16.1477C17.0032 16.0423 17.0625 15.8992 17.0625 15.75ZM13.5 7.6875C13.3508 7.6875 13.2077 7.74676 13.1023 7.85225C12.9968 7.95774 12.9375 8.10082 12.9375 8.25V15.75C12.9375 15.8992 12.9968 16.0423 13.1023 16.1477C13.2077 16.2532 13.3508 16.3125 13.5 16.3125C13.6492 16.3125 13.7923 16.2532 13.8977 16.1477C14.0032 16.0423 14.0625 15.8992 14.0625 15.75V8.25C14.0625 8.10082 14.0032 7.95774 13.8977 7.85225C13.7923 7.74676 13.6492 7.6875 13.5 7.6875ZM10.5 7.6875C10.3508 7.6875 10.2077 7.74676 10.1023 7.85225C9.99676 7.95774 9.9375 8.10082 9.9375 8.25V15.75C9.9375 15.8992 9.99676 16.0423 10.1023 16.1477C10.2077 16.2532 10.3508 16.3125 10.5 16.3125C10.6492 16.3125 10.7923 16.2532 10.8977 16.1477C11.0032 16.0423 11.0625 15.8992 11.0625 15.75V8.25C11.0625 8.10082 11.0032 7.95774 10.8977 7.85225C10.7923 7.74676 10.6492 7.6875 10.5 7.6875Z" fill="black"/>
</svg>
