<svg width="24" height="24" viewBox="0 0 24 24" fill="none" xmlns="http://www.w3.org/2000/svg">
<path d="M15.5625 21C15.5625 21.1492 15.5032 21.2923 15.3977 21.3977C15.2923 21.5032 15.1492 21.5625 15 21.5625H9C8.85082 21.5625 8.70774 21.5032 8.60225 21.3977C8.49676 21.2923 8.4375 21.1492 8.4375 21C8.4375 20.8508 8.49676 20.7077 8.60225 20.6023C8.70774 20.4968 8.85082 20.4375 9 20.4375H15C15.1492 20.4375 15.2923 20.4968 15.3977 20.6023C15.5032 20.7077 15.5625 20.8508 15.5625 21ZM20.6353 17.9062C20.5216 18.1065 20.3565 18.2729 20.1571 18.3882C19.9578 18.5036 19.7313 18.5637 19.5009 18.5625H4.5C4.26929 18.562 4.04279 18.5007 3.84331 18.3848C3.64384 18.2689 3.47844 18.1024 3.3638 17.9022C3.24915 17.702 3.1893 17.4751 3.19028 17.2444C3.19126 17.0137 3.25303 16.7874 3.36938 16.5881C3.89906 15.675 4.6875 13.1006 4.6875 9.75C4.6875 7.8106 5.45792 5.95064 6.82928 4.57928C8.20064 3.20792 10.0606 2.4375 12 2.4375C13.9394 2.4375 15.7994 3.20792 17.1707 4.57928C18.5421 5.95064 19.3125 7.8106 19.3125 9.75C19.3125 13.0997 20.1019 15.675 20.6325 16.5881C20.7501 16.7877 20.8124 17.0151 20.8129 17.2468C20.8133 17.4785 20.7521 17.7061 20.6353 17.9062ZM19.6594 17.1562C18.9497 15.9375 18.1875 13.095 18.1875 9.75C18.1875 8.10897 17.5356 6.53516 16.3752 5.37478C15.2148 4.2144 13.641 3.5625 12 3.5625C10.359 3.5625 8.78516 4.2144 7.62478 5.37478C6.4644 6.53516 5.8125 8.10897 5.8125 9.75C5.8125 13.0959 5.04938 15.9375 4.33969 17.1562C4.32323 17.1848 4.31457 17.2171 4.31457 17.25C4.31457 17.2829 4.32323 17.3152 4.33969 17.3438C4.35513 17.3725 4.37815 17.3964 4.40626 17.4129C4.43436 17.4295 4.46646 17.438 4.49906 17.4375H19.5C19.5326 17.438 19.5647 17.4295 19.5928 17.4129C19.6209 17.3964 19.6439 17.3725 19.6594 17.3438C19.6758 17.3152 19.6845 17.2829 19.6845 17.25C19.6845 17.2171 19.6758 17.1848 19.6594 17.1562Z" fill="black"/>
</svg>
