<svg width="24" height="24" viewBox="0 0 24 24" fill="none" xmlns="http://www.w3.org/2000/svg">
<path d="M19.4111 3.25604H17.1611V2.50604C17.1611 2.30713 17.0821 2.11636 16.9414 1.97571C16.8008 1.83506 16.61 1.75604 16.4111 1.75604C16.2122 1.75604 16.0214 1.83506 15.8808 1.97571C15.7401 2.11636 15.6611 2.30713 15.6611 2.50604V3.25604H8.16109V2.50604C8.16109 2.30713 8.08207 2.11636 7.94142 1.97571C7.80076 1.83506 7.61 1.75604 7.41109 1.75604C7.21217 1.75604 7.02141 1.83506 6.88076 1.97571C6.7401 2.11636 6.66109 2.30713 6.66109 2.50604V3.25604H4.41109C4.01326 3.25604 3.63173 3.41408 3.35043 3.69538C3.06912 3.97669 2.91109 4.35822 2.91109 4.75604V19.756C2.91109 20.1539 3.06912 20.5354 3.35043 20.8167C3.63173 21.098 4.01326 21.256 4.41109 21.256H19.4111C19.8089 21.256 20.1904 21.098 20.4717 20.8167C20.7531 20.5354 20.9111 20.1539 20.9111 19.756V4.75604C20.9111 4.35822 20.7531 3.97669 20.4717 3.69538C20.1904 3.41408 19.8089 3.25604 19.4111 3.25604ZM6.66109 4.75604V5.50604C6.66109 5.70495 6.7401 5.89572 6.88076 6.03637C7.02141 6.17702 7.21217 6.25604 7.41109 6.25604C7.61 6.25604 7.80076 6.17702 7.94142 6.03637C8.08207 5.89572 8.16109 5.70495 8.16109 5.50604V4.75604H15.6611V5.50604C15.6611 5.70495 15.7401 5.89572 15.8808 6.03637C16.0214 6.17702 16.2122 6.25604 16.4111 6.25604C16.61 6.25604 16.8008 6.17702 16.9414 6.03637C17.0821 5.89572 17.1611 5.70495 17.1611 5.50604V4.75604H19.4111V7.75604H4.41109V4.75604H6.66109ZM19.4111 19.756H4.41109V9.25604H19.4111V19.756Z" fill="black"/>
</svg>
