<svg width="24" height="24" viewBox="0 0 24 24" fill="none" xmlns="http://www.w3.org/2000/svg">
<path d="M12.5838 10.8652C12.5838 11.0507 12.5288 11.2319 12.4258 11.3861C12.3228 11.5403 12.1764 11.6604 12.0051 11.7314C11.8338 11.8023 11.6453 11.8209 11.4634 11.7847C11.2816 11.7485 11.1145 11.6593 10.9834 11.5281C10.8523 11.397 10.763 11.23 10.7268 11.0481C10.6907 10.8663 10.7092 10.6778 10.7802 10.5065C10.8512 10.3352 10.9713 10.1887 11.1255 10.0857C11.2797 9.98272 11.4609 9.92773 11.6463 9.92773C11.895 9.92773 12.1334 10.0265 12.3092 10.2023C12.4851 10.3781 12.5838 10.6166 12.5838 10.8652ZM7.52133 9.92773C7.33591 9.92773 7.15466 9.98272 7.00048 10.0857C6.84631 10.1887 6.72615 10.3352 6.6552 10.5065C6.58424 10.6778 6.56567 10.8663 6.60185 11.0481C6.63802 11.23 6.72731 11.397 6.85842 11.5281C6.98953 11.6593 7.15658 11.7485 7.33843 11.7847C7.52029 11.8209 7.70879 11.8023 7.8801 11.7314C8.0514 11.6604 8.19782 11.5403 8.30083 11.3861C8.40385 11.2319 8.45883 11.0507 8.45883 10.8652C8.45883 10.6166 8.36006 10.3781 8.18424 10.2023C8.00843 10.0265 7.76997 9.92773 7.52133 9.92773ZM15.7713 9.92773C15.5859 9.92773 15.4047 9.98272 15.2505 10.0857C15.0963 10.1887 14.9762 10.3352 14.9052 10.5065C14.8342 10.6778 14.8157 10.8663 14.8518 11.0481C14.888 11.23 14.9773 11.397 15.1084 11.5281C15.2395 11.6593 15.4066 11.7485 15.5884 11.7847C15.7703 11.8209 15.9588 11.8023 16.1301 11.7314C16.3014 11.6604 16.4478 11.5403 16.5508 11.3861C16.6538 11.2319 16.7088 11.0507 16.7088 10.8652C16.7088 10.6166 16.6101 10.3781 16.4342 10.2023C16.2584 10.0265 16.02 9.92773 15.7713 9.92773ZM21.2088 4.86523V16.8652C21.2088 17.2133 21.0706 17.5472 20.8244 17.7933C20.5783 18.0395 20.2444 18.1777 19.8963 18.1777H14.1223L12.7863 20.5215C12.6716 20.7226 12.5057 20.8898 12.3055 21.006C12.1053 21.1223 11.8779 21.1836 11.6463 21.1836C11.4148 21.1836 11.1874 21.1223 10.9872 21.006C10.787 20.8898 10.6211 20.7226 10.5063 20.5215L9.17039 18.1777H3.39633C3.04824 18.1777 2.7144 18.0395 2.46825 17.7933C2.22211 17.5472 2.08383 17.2133 2.08383 16.8652V4.86523C2.08383 4.51714 2.22211 4.1833 2.46825 3.93716C2.7144 3.69102 3.04824 3.55273 3.39633 3.55273H19.8963C20.2444 3.55273 20.5783 3.69102 20.8244 3.93716C21.0706 4.1833 21.2088 4.51714 21.2088 4.86523ZM20.0838 4.86523C20.0838 4.81551 20.0641 4.76781 20.0289 4.73265C19.9938 4.69749 19.9461 4.67773 19.8963 4.67773H3.39633C3.3466 4.67773 3.29891 4.69749 3.26375 4.73265C3.22859 4.76781 3.20883 4.81551 3.20883 4.86523V16.8652C3.20883 16.915 3.22859 16.9627 3.26375 16.9978C3.29891 17.033 3.3466 17.0527 3.39633 17.0527H9.49664C9.5956 17.0525 9.69287 17.0784 9.77863 17.1278C9.86439 17.1772 9.9356 17.2483 9.98508 17.334L11.4851 19.959C11.5014 19.9878 11.5252 20.0118 11.5538 20.0285C11.5825 20.0452 11.615 20.054 11.6482 20.054C11.6814 20.054 11.7139 20.0452 11.7426 20.0285C11.7713 20.0118 11.795 19.9878 11.8113 19.959L13.3113 17.334C13.3608 17.2483 13.432 17.1772 13.5178 17.1278C13.6035 17.0784 13.7008 17.0525 13.7998 17.0527H19.8963C19.9461 17.0527 19.9938 17.033 20.0289 16.9978C20.0641 16.9627 20.0838 16.915 20.0838 16.8652V4.86523Z" fill="black"/>
</svg>
