<svg width="24" height="24" viewBox="0 0 24 24" fill="none" xmlns="http://www.w3.org/2000/svg">
<path d="M15.3678 9.53959L12.7653 12.1421L15.3678 14.7446C15.4231 14.7961 15.4674 14.8582 15.4982 14.9272C15.5289 14.9962 15.5455 15.0707 15.5468 15.1462C15.5481 15.2217 15.5342 15.2967 15.5059 15.3668C15.4776 15.4368 15.4355 15.5005 15.3821 15.5539C15.3287 15.6073 15.2651 15.6494 15.195 15.6777C15.125 15.706 15.05 15.7199 14.9744 15.7185C14.8989 15.7172 14.8244 15.7007 14.7554 15.6699C14.6864 15.6392 14.6243 15.5949 14.5728 15.5396L11.9703 12.9371L9.36784 15.5396C9.26121 15.639 9.12018 15.693 8.97445 15.6905C8.82872 15.6879 8.68968 15.6289 8.58663 15.5258C8.48357 15.4227 8.42453 15.2837 8.42196 15.138C8.41939 14.9923 8.47348 14.8512 8.57284 14.7446L11.1753 12.1421L8.57284 9.53959C8.47348 9.43296 8.41939 9.29192 8.42196 9.1462C8.42453 9.00047 8.48357 8.86143 8.58663 8.75837C8.68968 8.65531 8.82872 8.59628 8.97445 8.59371C9.12018 8.59114 9.26121 8.64523 9.36784 8.74459L11.9703 11.3471L14.5728 8.74459C14.6795 8.64523 14.8205 8.59114 14.9662 8.59371C15.112 8.59628 15.251 8.65531 15.3541 8.75837C15.4571 8.86143 15.5162 9.00047 15.5187 9.1462C15.5213 9.29192 15.4672 9.43296 15.3678 9.53959ZM21.5328 12.1421C21.5328 14.0334 20.972 15.8822 19.9213 17.4547C18.8705 19.0273 17.3771 20.2529 15.6298 20.9767C13.8824 21.7005 11.9597 21.8898 10.1048 21.5208C8.24985 21.1519 6.54597 20.2411 5.20863 18.9038C3.87129 17.5665 2.96055 15.8626 2.59158 14.0076C2.22261 12.1527 2.41198 10.23 3.13574 8.48268C3.85951 6.73536 5.08516 5.2419 6.6577 4.19116C8.23025 3.14042 10.0791 2.57959 11.9703 2.57959C14.5056 2.58257 16.9361 3.591 18.7288 5.38367C20.5214 7.17634 21.5299 9.60687 21.5328 12.1421ZM20.4078 12.1421C20.4078 10.4733 19.913 8.84201 18.9859 7.45447C18.0587 6.06693 16.741 4.98547 15.1992 4.34686C13.6575 3.70824 11.961 3.54115 10.3243 3.86671C8.68755 4.19228 7.18413 4.99587 6.00413 6.17588C4.82412 7.35588 4.02053 8.8593 3.69497 10.496C3.3694 12.1327 3.53649 13.8292 4.17511 15.371C4.81372 16.9127 5.89518 18.2305 7.28272 19.1576C8.67026 20.0847 10.3016 20.5796 11.9703 20.5796C14.2073 20.5771 16.352 19.6874 17.9338 18.1056C19.5156 16.5238 20.4054 14.3791 20.4078 12.1421Z" fill="black"/>
</svg>
