<svg width="24" height="24" viewBox="0 0 24 24" fill="none" xmlns="http://www.w3.org/2000/svg">
<path d="M20.6732 4.54889H2.67325C2.52406 4.54889 2.38099 4.60815 2.2755 4.71364C2.17001 4.81913 2.11075 4.9622 2.11075 5.11139V17.8614C2.11075 18.2095 2.24903 18.5433 2.49517 18.7895C2.74131 19.0356 3.07515 19.1739 3.42325 19.1739H19.9232C20.2713 19.1739 20.6052 19.0356 20.8513 18.7895C21.0975 18.5433 21.2357 18.2095 21.2357 17.8614V5.11139C21.2357 4.9622 21.1765 4.81913 21.071 4.71364C20.9655 4.60815 20.8224 4.54889 20.6732 4.54889ZM11.6732 12.5983L4.11887 5.67389H19.2276L11.6732 12.5983ZM9.20481 11.8614L3.23575 17.3326V6.39014L9.20481 11.8614ZM10.0373 12.6245L11.2982 13.7758C11.4019 13.8706 11.5374 13.9232 11.6779 13.9232C11.8185 13.9232 11.9539 13.8706 12.0576 13.7758L13.3139 12.6245L19.2276 18.0489H4.11981L10.0373 12.6245ZM14.1417 11.8614L20.1107 6.39014V17.3326L14.1417 11.8614Z" fill="black"/>
</svg>
