<svg width="24" height="24" viewBox="0 0 24 24" fill="none" xmlns="http://www.w3.org/2000/svg">
<path d="M16.8358 7.08061C16.8359 6.10331 16.5531 5.14687 16.0216 4.32675C15.49 3.50663 14.7325 2.85788 13.8404 2.45883C12.9483 2.05978 11.9597 1.92748 10.994 2.07791C10.0284 2.22833 9.12692 2.65505 8.39845 3.30654C7.66998 3.95804 7.14566 4.80646 6.88877 5.74939C6.63189 6.69233 6.65342 7.68946 6.95078 8.62043C7.24814 9.55139 7.80861 10.3764 8.56453 10.9958C9.32045 11.6153 10.2395 12.0026 11.2108 12.1112V22.0806C11.2108 22.2298 11.27 22.3729 11.3755 22.4784C11.481 22.5838 11.6241 22.6431 11.7733 22.6431C11.9224 22.6431 12.0655 22.5838 12.171 22.4784C12.2765 22.3729 12.3358 22.2298 12.3358 22.0806V12.1112C13.5726 11.9715 14.7149 11.3815 15.5448 10.4538C16.3747 9.52604 16.8342 8.32537 16.8358 7.08061ZM11.7733 11.0181C10.9945 11.0181 10.2332 10.7872 9.5857 10.3545C8.93818 9.92186 8.4335 9.30691 8.13548 8.58742C7.83746 7.86794 7.75948 7.07624 7.91141 6.31244C8.06334 5.54864 8.43835 4.84705 8.98902 4.29638C9.53969 3.74571 10.2413 3.3707 11.0051 3.21877C11.7689 3.06684 12.5606 3.14481 13.2801 3.44283C13.9996 3.74085 14.6145 4.24553 15.0472 4.89305C15.4798 5.54057 15.7108 6.30185 15.7108 7.08061C15.7108 8.1249 15.2959 9.12642 14.5575 9.86484C13.8191 10.6033 12.8175 11.0181 11.7733 11.0181Z" fill="black"/>
</svg>
