<svg width="24" height="24" viewBox="0 0 24 24" fill="none" xmlns="http://www.w3.org/2000/svg">
<path d="M13.5488 10.4128C13.4435 10.3073 13.3843 10.1644 13.3843 10.0153C13.3843 9.86625 13.4435 9.72328 13.5488 9.61781L17.0888 6.07781H14.6963C14.5471 6.07781 14.4041 6.01855 14.2986 5.91306C14.1931 5.80757 14.1338 5.6645 14.1338 5.51531C14.1338 5.36613 14.1931 5.22305 14.2986 5.11756C14.4041 5.01208 14.5471 4.95281 14.6963 4.95281H18.4463C18.5955 4.95281 18.7386 5.01208 18.8441 5.11756C18.9496 5.22305 19.0088 5.36613 19.0088 5.51531V9.26531C19.0088 9.4145 18.9496 9.55757 18.8441 9.66306C18.7386 9.76855 18.5955 9.82781 18.4463 9.82781C18.2971 9.82781 18.1541 9.76855 18.0486 9.66306C17.9431 9.55757 17.8838 9.4145 17.8838 9.26531V6.87281L14.3438 10.4128C14.2384 10.5181 14.0954 10.5773 13.9463 10.5773C13.7973 10.5773 13.6543 10.5181 13.5488 10.4128ZM20.4985 17.4056C20.3373 18.6306 19.7356 19.7551 18.8058 20.5689C17.8761 21.3827 16.6819 21.8302 15.4463 21.8278C8.10571 21.8278 2.13383 15.8559 2.13383 8.51531C2.13126 7.27967 2.5787 6.08537 3.39254 5.15559C4.20637 4.22582 5.33092 3.62418 6.55602 3.46312C6.83791 3.42878 7.12333 3.48679 7.36945 3.62845C7.61557 3.7701 7.80911 3.98776 7.92102 4.24875L9.89914 8.66531C9.98632 8.86509 10.0224 9.08343 10.004 9.30063C9.9857 9.51782 9.91357 9.72704 9.79414 9.90938C9.78209 9.92825 9.76894 9.94641 9.75477 9.96375L7.77946 12.3075C7.76745 12.332 7.76121 12.359 7.76121 12.3862C7.76121 12.4135 7.76745 12.4405 7.77946 12.465C8.49758 13.935 10.0388 15.465 11.5295 16.1822C11.5543 16.1935 11.5815 16.1989 11.6089 16.198C11.6362 16.197 11.6629 16.1897 11.687 16.1766L14.0016 14.2078C14.0182 14.1934 14.0357 14.1803 14.0541 14.1684C14.2358 14.0473 14.4448 13.9735 14.6621 13.9535C14.8795 13.9335 15.0985 13.9681 15.2991 14.0541L19.7279 16.0387C19.9864 16.1532 20.2011 16.3481 20.34 16.5943C20.4788 16.8406 20.5344 17.1252 20.4985 17.4056ZM19.3838 17.2641C19.387 17.2249 19.3777 17.1857 19.3574 17.152C19.337 17.1184 19.3066 17.092 19.2704 17.0766L14.8407 15.0919C14.8165 15.0825 14.7906 15.0785 14.7647 15.0802C14.7388 15.0818 14.7136 15.089 14.6907 15.1012L12.377 17.07C12.3601 17.0841 12.3423 17.0972 12.3245 17.1094C12.1357 17.2352 11.9176 17.31 11.6913 17.3264C11.4651 17.3429 11.2385 17.3004 11.0335 17.2031C9.31227 16.3716 7.59664 14.6719 6.76508 12.9666C6.66728 12.7628 6.62374 12.5373 6.63868 12.3118C6.65363 12.0863 6.72655 11.8684 6.85039 11.6794C6.86246 11.6606 6.87594 11.6427 6.89071 11.6259L8.86414 9.27375C8.87542 9.24919 8.88127 9.22249 8.88127 9.19547C8.88127 9.16845 8.87542 9.14174 8.86414 9.11719L6.89071 4.70063C6.87768 4.66516 6.85423 4.63445 6.82345 4.61254C6.79267 4.59062 6.75599 4.57852 6.71821 4.57781H6.69664C5.74307 4.70446 4.86822 5.17395 4.23556 5.89857C3.6029 6.62319 3.2557 7.55337 3.25883 8.51531C3.25883 15.2353 8.72633 20.7028 15.4463 20.7028C16.4084 20.7057 17.3385 20.3583 18.0631 19.7255C18.7877 19.0927 19.2572 18.2177 19.3838 17.2641Z" fill="black"/>
</svg>
