<svg width="24" height="24" viewBox="0 0 24 24" fill="none" xmlns="http://www.w3.org/2000/svg">
<path d="M21.5457 11.0665L8.03824 2.80339C7.81051 2.66394 7.54968 2.58781 7.28269 2.58287C7.0157 2.57792 6.75223 2.64434 6.51949 2.77527C6.28897 2.90416 6.09694 3.09212 5.96314 3.31983C5.82935 3.54754 5.75862 3.80678 5.75824 4.07089V20.5953C5.75998 20.9914 5.91896 21.3707 6.20024 21.6497C6.48152 21.9287 6.86207 22.0846 7.25824 22.0831C7.53476 22.083 7.80591 22.0067 8.04199 21.8628L21.5457 13.5996C21.7628 13.4673 21.9422 13.2814 22.0667 13.0598C22.1911 12.8382 22.2565 12.5882 22.2565 12.334C22.2565 12.0798 22.1911 11.8299 22.0667 11.6082C21.9422 11.3866 21.7628 11.2007 21.5457 11.0684V11.0665ZM7.25824 20.5775V4.08308L20.7423 12.3331L7.25824 20.5775Z" fill="black"/>
</svg>
