<svg width="24" height="24" viewBox="0 0 24 24" fill="none" xmlns="http://www.w3.org/2000/svg">
<path d="M21.17 19.6702C19.7422 17.2017 17.5419 15.4317 14.974 14.5927C16.2442 13.8365 17.231 12.6844 17.783 11.3131C18.335 9.94182 18.4215 8.42728 18.0294 7.00205C17.6373 5.57682 16.7882 4.31971 15.6125 3.42377C14.4367 2.52783 12.9994 2.0426 11.5212 2.0426C10.043 2.0426 8.60573 2.52783 7.43001 3.42377C6.25429 4.31971 5.40517 5.57682 5.01305 7.00205C4.62094 8.42728 4.70751 9.94182 5.25947 11.3131C5.81143 12.6844 6.79827 13.8365 8.06842 14.5927C5.50061 15.4308 3.3003 17.2008 1.87248 19.6702C1.82012 19.7555 1.78539 19.8505 1.77034 19.9495C1.75529 20.0486 1.76022 20.1496 1.78485 20.2467C1.80948 20.3437 1.8533 20.4349 1.91373 20.5148C1.97416 20.5946 2.04997 20.6616 2.1367 20.7117C2.22342 20.7618 2.3193 20.794 2.41868 20.8064C2.51806 20.8189 2.61892 20.8113 2.71532 20.7841C2.81171 20.7569 2.90169 20.7107 2.97994 20.6482C3.05819 20.5857 3.12313 20.5082 3.17092 20.4202C4.93717 17.3677 8.05905 15.5452 11.5212 15.5452C14.9834 15.5452 18.1053 17.3677 19.8715 20.4202C19.9193 20.5082 19.9843 20.5857 20.0625 20.6482C20.1408 20.7107 20.2308 20.7569 20.3272 20.7841C20.4235 20.8113 20.5244 20.8189 20.6238 20.8064C20.7232 20.794 20.819 20.7618 20.9058 20.7117C20.9925 20.6616 21.0683 20.5946 21.1287 20.5148C21.1892 20.4349 21.233 20.3437 21.2576 20.2467C21.2822 20.1496 21.2872 20.0486 21.2721 19.9495C21.2571 19.8505 21.2223 19.7555 21.17 19.6702ZM6.27123 8.79515C6.27123 7.7568 6.57914 6.74177 7.15602 5.87841C7.7329 5.01505 8.55283 4.34215 9.51215 3.94479C10.4715 3.54743 11.5271 3.44346 12.5455 3.64603C13.5639 3.8486 14.4993 4.34862 15.2335 5.08284C15.9678 5.81707 16.4678 6.75253 16.6704 7.77093C16.8729 8.78933 16.769 9.84493 16.3716 10.8042C15.9742 11.7636 15.3013 12.5835 14.438 13.1604C13.5746 13.7372 12.5596 14.0452 11.5212 14.0452C10.1293 14.0437 8.79481 13.4901 7.81057 12.5058C6.82633 11.5216 6.27272 10.1871 6.27123 8.79515Z" fill="black"/>
</svg>
