<svg width="24" height="24" viewBox="0 0 24 24" fill="none" xmlns="http://www.w3.org/2000/svg">
<path d="M18.6729 18.2071C18.7281 18.2586 18.7724 18.3207 18.8032 18.3897C18.8339 18.4587 18.8505 18.5332 18.8518 18.6087C18.8531 18.6843 18.8392 18.7593 18.8109 18.8293C18.7827 18.8994 18.7405 18.963 18.6871 19.0164C18.6337 19.0698 18.5701 19.1119 18.5001 19.1402C18.43 19.1685 18.355 19.1824 18.2795 19.1811C18.2039 19.1797 18.1294 19.1632 18.0604 19.1325C17.9914 19.1017 17.9293 19.0574 17.8779 19.0021L11.5254 12.6506L5.17285 19.0021C5.06622 19.1015 4.92519 19.1556 4.77946 19.153C4.63373 19.1504 4.4947 19.0914 4.39164 18.9883C4.28858 18.8853 4.22954 18.7462 4.22697 18.6005C4.2244 18.4548 4.27849 18.3138 4.37785 18.2071L10.7294 11.8546L4.37785 5.50212C4.27849 5.39549 4.2244 5.25446 4.22697 5.10873C4.22954 4.963 4.28858 4.82396 4.39164 4.7209C4.4947 4.61784 4.63373 4.55881 4.77946 4.55624C4.92519 4.55367 5.06622 4.60776 5.17285 4.70712L11.5254 11.0587L17.8779 4.70712C17.9845 4.60776 18.1255 4.55367 18.2712 4.55624C18.417 4.55881 18.556 4.61784 18.6591 4.7209C18.7621 4.82396 18.8212 4.963 18.8237 5.10873C18.8263 5.25446 18.7722 5.39549 18.6729 5.50212L12.3213 11.8546L18.6729 18.2071Z" fill="black"/>
</svg>
